<svg height="512" viewBox="0 0 64 64" width="512" xmlns="http://www.w3.org/2000/svg"><g id="Agronomy"><path d="m42.5 38.95a11.607 11.607 0 0 1 -.09 1.42 12.1 12.1 0 0 1 -.53 2.42h-.01a5.738 5.738 0 0 1 -1.99 2.88c-2.72 1.9-5.95 1.97-7.21.16s-.1-4.81 2.62-6.71 7.21-.17 7.21-.17z" fill="#ccfc5c"/><path d="m42.5 29.67a13.22 13.22 0 0 1 -.26 2.43 6.721 6.721 0 0 1 -2.36 4.24c-2.72 1.9-5.95 1.97-7.21.16s-.1-4.82 2.62-6.72 7.21-.16 7.21-.16z" fill="#ccfc5c"/><path d="m42.5 20.28s.09 4.82-2.62 6.72-5.95 1.98-7.21.17-.1-4.82 2.62-6.72 7.21-.17 7.21-.17z" fill="#ccfc5c"/><path d="m42 5-8 2a2.006 2.006 0 0 1 -2-2 2.015 2.015 0 0 1 2-2z" fill="#ffde55"/><path d="m36 15.83c0 3.32-1.79 6-4 6s-4-2.68-4-6 4-6 4-6 4 2.69 4 6z" fill="#ccfc5c"/><g fill="#a4e276"><path d="m39.88 45.67c-2.72 1.9-5.95 1.97-7.21.16a2.691 2.691 0 0 1 -.4-.88 6.8 6.8 0 0 0 5.61-1.28c1.76-1.23 2.34-3.7 2.53-5.28a12.732 12.732 0 0 1 2.09.56s.09 4.82-2.62 6.72z"/><path d="m42.5 29.62v.05a13.22 13.22 0 0 1 -.26 2.43 6.721 6.721 0 0 1 -2.36 4.24c-2.72 1.9-5.95 1.97-7.21.16a2.691 2.691 0 0 1 -.4-.88 6.8 6.8 0 0 0 5.61-1.28 6.721 6.721 0 0 0 2.36-4.24 9.146 9.146 0 0 0 .16-1.04 12.686 12.686 0 0 1 2.1.56z"/><path d="m39.88 27c-.15.1-.3.2-.45.29-2.25 1.39-4.74 1.56-6.15.5a2.566 2.566 0 0 1 -.61-.62 2.672 2.672 0 0 1 -.41-.89 6.8 6.8 0 0 0 5.62-1.28c1.76-1.23 2.34-3.69 2.52-5.27a12.163 12.163 0 0 1 2.1.55s.09 4.82-2.62 6.72z"/><path d="m36 15.83c0 3.32-1.79 6-4 6a3.709 3.709 0 0 1 -3.12-2.24 2.718 2.718 0 0 0 1.12.24c2.21 0 4-2.68 4-6a6.032 6.032 0 0 0 -1.42-3.57c1.11.9 3.42 3.06 3.42 5.57z"/></g><path d="m28.71 20.45c2.72 1.9 3.89 4.91 2.62 6.72s-4.49 1.73-7.21-.17-2.62-6.72-2.62-6.72 4.5-1.73 7.21.17z" fill="#ccfc5c"/><path d="m21.76 32.1a13.22 13.22 0 0 1 -.26-2.43v-.05s4.5-1.74 7.21.16 3.89 4.91 2.62 6.72-4.49 1.74-7.21-.16a6.721 6.721 0 0 1 -2.36-4.24z" fill="#ccfc5c"/><path d="m28.71 39.12c2.72 1.9 3.89 4.9 2.62 6.71s-4.49 1.74-7.21-.16a5.738 5.738 0 0 1 -1.99-2.88h-.01a12.1 12.1 0 0 1 -.53-2.42 11.607 11.607 0 0 1 -.09-1.42s4.5-1.74 7.21.17z" fill="#ccfc5c"/><path d="m30 57a2.006 2.006 0 0 1 2 2 2.015 2.015 0 0 1 -2 2l-8-2z" fill="#ffde55"/><path d="m6 32a26.025 26.025 0 0 1 25.191-25.979 3 3 0 0 0 2.809 1.979.984.984 0 0 0 .242-.03l8-2a1 1 0 0 0 0-1.94l-8-2a.984.984 0 0 0 -.242-.03 2.994 2.994 0 0 0 -2.822 2.021 27.993 27.993 0 0 0 -16.778 49.756l1.258-1.554a25.912 25.912 0 0 1 -9.658-20.223zm27.9-27.995 3.98 1-3.98.995a1 1 0 0 1 0-1.99z"/><path d="m19.481 54.792c-.653-.359-1.3-.753-1.924-1.171a1 1 0 1 0 -1.114 1.662c.673.45 1.371.875 2.076 1.262a.989.989 0 0 0 .48.123 1 1 0 0 0 .482-1.876z"/><path d="m60 32a27.938 27.938 0 0 0 -10.369-21.756l-1.262 1.556a26 26 0 0 1 -15.56 46.183 3 3 0 0 0 -2.809-1.983.984.984 0 0 0 -.242.03l-8 2a1 1 0 0 0 0 1.94l8 2a.984.984 0 0 0 .242.03 2.994 2.994 0 0 0 2.822-2.021 28.027 28.027 0 0 0 27.178-27.979zm-29.9 28-3.977-1 3.98-.995a1 1 0 0 1 0 1.99z"/><path d="m44.519 9.208c.653.359 1.3.753 1.924 1.171a1 1 0 0 0 1.114-1.662c-.673-.45-1.371-.875-2.076-1.262a1 1 0 0 0 -.962 1.753z"/><path d="m45.85 38.18a11.778 11.778 0 0 0 -2.38.63.985.985 0 0 0 -.61-.79 13.485 13.485 0 0 0 -2.73-.67 3.447 3.447 0 0 0 .32-.2 7.11 7.11 0 0 0 2.57-4.04 7.784 7.784 0 0 1 2.02.35 9.1 9.1 0 0 1 5.38 4.79l1.82-.83a11.015 11.015 0 0 0 -6.61-5.88 10.675 10.675 0 0 0 -2.23-.41c.04-.32.06-.6.08-.83a9.693 9.693 0 0 1 2.67-.81 10.923 10.923 0 0 1 5.49.61l.72-1.87a12.88 12.88 0 0 0 -6.51-.72 12.148 12.148 0 0 0 -3.36 1.05 13.453 13.453 0 0 0 -2.36-.55c.11-.07.22-.12.32-.19 3.11-2.18 3.05-7.34 3.05-7.56a1.008 1.008 0 0 0 -.64-.91 11.8 11.8 0 0 0 -6.32-.54 9.746 9.746 0 0 0 .46-2.98c0-3.8-4.26-6.71-4.44-6.83a1.033 1.033 0 0 0 -1.12 0c-.18.12-4.44 3.03-4.44 6.83a9.746 9.746 0 0 0 .46 2.98 11.908 11.908 0 0 0 -6.32.54 1.008 1.008 0 0 0 -.64.91c0 .22-.06 5.38 3.05 7.56a3.371 3.371 0 0 0 .32.19 13.453 13.453 0 0 0 -2.36.55 12.148 12.148 0 0 0 -3.36-1.05 12.864 12.864 0 0 0 -6.51.72l.72 1.87a10.923 10.923 0 0 1 5.49-.61 9.693 9.693 0 0 1 2.67.81c.02.23.04.51.08.83a10.675 10.675 0 0 0 -2.23.41 11.015 11.015 0 0 0 -6.61 5.88l1.82.83a9.1 9.1 0 0 1 5.38-4.79 7.784 7.784 0 0 1 2.02-.35 7.11 7.11 0 0 0 2.57 4.04 3.447 3.447 0 0 0 .32.2 13.485 13.485 0 0 0 -2.73.67.985.985 0 0 0 -.61.79 11.778 11.778 0 0 0 -2.38-.63 12.864 12.864 0 0 0 -6.51.72l.72 1.87a10.7 10.7 0 0 1 5.49-.61 9.89 9.89 0 0 1 2.83.88c.04.24.08.49.14.74a10.239 10.239 0 0 0 -2.45.43c-4.49 1.39-5.31 3.2-5.61 3.88l1.82.82c.18-.41.75-1.67 4.38-2.79a8.083 8.083 0 0 1 2.48-.35 6.415 6.415 0 0 0 2.11 2.72 8.669 8.669 0 0 0 4.7 1.65h.15a5.019 5.019 0 0 0 2.6-.66v6.52h2v-6.52a5.019 5.019 0 0 0 2.6.66h.15a8.669 8.669 0 0 0 4.7-1.65 6.415 6.415 0 0 0 2.11-2.72 8.083 8.083 0 0 1 2.48.35c3.63 1.12 4.2 2.38 4.38 2.79l1.82-.82c-.3-.68-1.12-2.49-5.61-3.88a10.239 10.239 0 0 0 -2.45-.43c.06-.25.1-.5.14-.74a10.237 10.237 0 0 1 2.83-.89 10.8 10.8 0 0 1 5.49.62l.72-1.87a12.864 12.864 0 0 0 -6.51-.72zm-4.38-7.84c-.09 1.28-.48 3.99-2.17 5.18a6.784 6.784 0 0 1 -3.59 1.29 2.615 2.615 0 0 1 -2.22-.88 2.6 2.6 0 0 1 -.07-2.39 6.694 6.694 0 0 1 2.44-2.94c1.69-1.18 4.37-.62 5.61-.26zm-8.47.17v-1.7a4.334 4.334 0 0 0 1.27.51 9.605 9.605 0 0 0 -1.27 1.19zm2.86-9.24c1.69-1.18 4.38-.62 5.62-.27-.11 1.5-.6 4.08-2.18 5.18a6.717 6.717 0 0 1 -3.59 1.3 2.616 2.616 0 0 1 -2.22-.89 2.575 2.575 0 0 1 -.07-2.38 6.694 6.694 0 0 1 2.44-2.94zm-13.33-.27c1.24-.35 3.92-.91 5.61.27a6.694 6.694 0 0 1 2.44 2.94 2.575 2.575 0 0 1 -.07 2.38 2.616 2.616 0 0 1 -2.22.89 6.717 6.717 0 0 1 -3.59-1.3c-1.69-1.18-2.08-3.89-2.17-5.18zm0 9.34c1.24-.36 3.92-.92 5.61.26a6.694 6.694 0 0 1 2.44 2.94 2.6 2.6 0 0 1 -.07 2.39 2.615 2.615 0 0 1 -2.22.88 6.784 6.784 0 0 1 -3.59-1.29c-1.69-1.19-2.08-3.9-2.17-5.18zm7.98 14.92a2.587 2.587 0 0 1 -2.22.88 6.619 6.619 0 0 1 -3.59-1.29c-1.69-1.18-2.08-3.9-2.17-5.19 1.44-.41 4.03-.83 5.61.27a6.749 6.749 0 0 1 2.44 2.94 2.6 2.6 0 0 1 -.07 2.39zm.49-5.42a10.317 10.317 0 0 0 -1.27-1.19 4.334 4.334 0 0 0 1.27-.51zm0-9.33a9.605 9.605 0 0 0 -1.27-1.19 4.334 4.334 0 0 0 1.27-.51zm1-9.68c-1.63 0-3-2.29-3-5 0-2.06 2-3.94 3-4.75 1.17.94 3 2.83 3 4.75 0 2.71-1.37 5-3 5zm1 17.31a4.334 4.334 0 0 0 1.27.51 10.317 10.317 0 0 0 -1.27 1.19zm6.3 6.71a6.619 6.619 0 0 1 -3.59 1.29 2.173 2.173 0 0 1 -2.29-3.27 6.749 6.749 0 0 1 2.44-2.94c1.69-1.18 4.38-.61 5.62-.26-.11 1.5-.6 4.07-2.18 5.18z"/></g></svg>